<svg width="72" height="72" viewBox="0 0 72 72" fill="none" xmlns="http://www.w3.org/2000/svg">
<path fill-rule="evenodd" clip-rule="evenodd" d="M19.75 0C17.2647 0 15.25 2.01472 15.25 4.5V6.30005C8.40328 7.68987 3.25 13.7431 3.25 21V57C3.25 65.2843 9.96573 72 18.25 72H54.25C62.5343 72 69.25 65.2843 69.25 57V21C69.25 13.7431 64.0967 7.68987 57.25 6.30005V4.5C57.25 2.01472 55.2353 0 52.75 0H46.75C44.2647 0 42.25 2.01472 42.25 4.5V6H30.25V4.5C30.25 2.01472 28.2353 0 25.75 0H19.75ZM19.7487 43.4998C16.435 43.4998 13.7487 46.1861 13.7487 49.4998V55.4998C13.7487 58.8135 16.435 61.4998 19.7487 61.4998H25.7487C29.0624 61.4998 31.7487 58.8135 31.7487 55.4998V49.4998C31.7487 46.1861 29.0624 43.4998 25.7487 43.4998H19.7487Z" fill="url(#paint0_linear)"/>
<defs>
<linearGradient id="paint0_linear" x1="3.25" y1="0" x2="70.8735" y2="66.1208" gradientUnits="userSpaceOnUse">
<stop stop-color="#F7B68A"/>
<stop offset="1" stop-color="#F94C83"/>
</linearGradient>
</defs>
</svg>
