<svg width="120" height="120" viewBox="0 0 120 120" fill="none" xmlns="http://www.w3.org/2000/svg"><path fill-rule="evenodd" clip-rule="evenodd" d="M60 0C26.85 0 0 26.85 0 60c0 26.55 17.175 48.975 41.025 56.925 3 .525 4.125-1.275 4.125-2.85 0-1.425-.075-6.15-.075-11.175C30 105.675 26.1 99.225 24.9 95.85c-.675-1.725-3.6-7.05-6.15-8.475-2.1-1.125-5.1-3.9-.075-3.975 4.725-.075 8.1 4.35 9.225 6.15 5.4 9.075 14.025 6.525 17.475 4.95.525-3.9 2.1-6.525 3.825-8.025-13.35-1.5-27.3-6.675-27.3-29.625 0-6.525 2.325-11.925 6.15-16.125-.6-1.5-2.7-7.65.6-15.9 0 0 5.025-1.575 16.5 6.15 4.8-1.35 9.9-2.025 15-2.025s10.2.675 15 2.025c11.475-7.8 16.5-6.15 16.5-6.15 3.3 8.25 1.2 14.4.6 15.9 3.825 4.2 6.15 9.525 6.15 16.125 0 23.025-14.025 28.125-27.375 29.625 2.175 1.875 4.05 5.475 4.05 11.1 0 8.025-.075 14.475-.075 16.5 0 1.575 1.125 3.45 4.125 2.85C102.825 108.975 120 86.475 120 60c0-33.15-26.85-60-60-60z" fill="#394150"/></svg>