<?xml version="1.0" standalone="no"?>
<!DOCTYPE svg PUBLIC "-//W3C//DTD SVG 20010904//EN"
 "http://www.w3.org/TR/2001/REC-SVG-20010904/DTD/svg10.dtd">
<svg version="1.0" xmlns="http://www.w3.org/2000/svg"
 width="420.000000pt" height="420.000000pt" viewBox="0 0 420.000000 420.000000"
 preserveAspectRatio="xMidYMid meet">
<metadata>
Created by potrace 1.14, written by Peter Selinger 2001-2017
</metadata>
<g transform="translate(0.000000,420.000000) scale(0.100000,-0.100000)"
fill="#000000" stroke="none">
<path d="M1145 4187 c-59 -23 -93 -47 -122 -84 -45 -59 -55 -91 -59 -182 -1
-46 -4 -84 -6 -86 -2 -1 -37 -12 -78 -24 -264 -79 -482 -293 -574 -563 -16
-47 -21 -70 -35 -160 -4 -26 -8 -553 -8 -1170 0 -1193 0 -1181 48 -1327 92
-276 329 -492 621 -566 l93 -23 1150 0 c633 -1 1170 3 1195 8 116 22 171 40
264 87 248 125 425 368 466 638 17 114 17 2306 0 2391 -57 285 -227 509 -477
633 -60 30 -176 71 -200 71 -10 0 -13 20 -13 79 0 43 -5 93 -11 112 -21 62
-70 117 -133 149 l-59 30 -241 -3 c-225 -2 -244 -3 -281 -23 -95 -51 -145
-138 -146 -253 l-1 -71 -349 0 c-192 0 -349 3 -350 8 0 4 -2 39 -3 78 -4 85
-24 132 -83 190 -66 66 -105 74 -362 73 -140 0 -227 -5 -246 -12z m521 -2537
c67 -22 112 -49 157 -93 88 -89 103 -153 102 -437 -1 -200 -2 -219 -24 -278
-32 -85 -94 -153 -179 -194 l-67 -33 -255 0 -255 0 -62 29 c-85 39 -173 134
-188 204 -2 10 -8 31 -13 47 -4 17 -8 134 -7 260 2 250 7 273 66 361 48 71
149 132 234 142 22 2 41 5 42 6 1 0 93 0 206 0 133 -1 218 -6 243 -14z"/>
</g>
</svg>
