<svg width="72" height="72" viewBox="0 0 72 72" fill="none" xmlns="http://www.w3.org/2000/svg"><path fill-rule="evenodd" clip-rule="evenodd" d="M19.75 0a4.5 4.5 0 0 0-4.5 4.5v1.8c-6.847 1.39-12 7.443-12 14.7v36c0 8.284 6.716 15 15 15h36c8.284 0 15-6.716 15-15V21c0-7.257-5.153-13.31-12-14.7V4.5a4.5 4.5 0 0 0-4.5-4.5h-6a4.5 4.5 0 0 0-4.5 4.5V6h-12V4.5a4.5 4.5 0 0 0-4.5-4.5h-6zm-.001 43.5a6 6 0 0 0-6 6v6a6 6 0 0 0 6 6h6a6 6 0 0 0 6-6v-6a6 6 0 0 0-6-6h-6z" fill="url(#a)"/><defs><linearGradient id="a" x1="3.25" y1="0" x2="70.874" y2="66.121" gradientUnits="userSpaceOnUse"><stop stop-color="#F7B68A"/><stop offset="1" stop-color="#F94C83"/></linearGradient></defs></svg>