<svg width="64" height="72" viewBox="0 0 64 72" fill="none" xmlns="http://www.w3.org/2000/svg"><path fill-rule="evenodd" clip-rule="evenodd" d="M12.8 0a9.6 9.6 0 0 0-9.6 9.6v4.798A15.93 15.93 0 0 0 0 24v32c0 8.837 7.163 16 16 16h32c8.837 0 16-7.163 16-16V24c0-8.837-7.163-16-16-16H36.667c-.761-4.54-4.71-8-9.467-8H12.8zm19.467 53.2a8.667 8.667 0 1 0 0-17.333 8.667 8.667 0 0 0 0 17.333zm0 8.667c9.573 0 17.333-7.76 17.333-17.334 0-9.573-7.76-17.333-17.333-17.333-9.573 0-17.334 7.76-17.334 17.333 0 9.573 7.76 17.334 17.334 17.334z" fill="url(#a)"/><defs><linearGradient id="a" x1="0" y1="0" x2="64" y2="72" gradientUnits="userSpaceOnUse"><stop stop-color="#27C8DE"/><stop offset="1" stop-color="#90DC0F"/></linearGradient></defs></svg>